<svg xmlns="http://www.w3.org/2000/svg" viewBox="0 0 70 70"><defs><style>.cls-1{fill:#14be3c;}.cls-2{fill:#fff;}</style></defs><title>bulb</title><g id="Layer_2" data-name="Layer 2"><g id="Layer_1-2" data-name="Layer 1"><circle class="cls-1" cx="35" cy="35" r="35"/><path class="cls-2" d="M34.48,60.28A4.84,4.84,0,0,1,32,59a4.06,4.06,0,0,1-1.07-1.86.47.47,0,0,0-.58-.42c-.64,0-1.29,0-1.93,0a2.13,2.13,0,0,1-2.11-2.11c-.07-1.52,0-1.79.48-2.59a4,4,0,0,1-.23-3.55,2,2,0,0,1,.69-.81.69.69,0,0,0,.36-.67q0-1.45,0-2.91a.68.68,0,0,0-.36-.68A14.85,14.85,0,0,1,20,32.5a14.43,14.43,0,0,1,2.2-10.14,14.78,14.78,0,0,1,9.37-6.64c.46-.11.93-.19,1.41-.26a.76.76,0,0,1,1,.59c.08.43-.2.79-.73.87a12.93,12.93,0,0,0-5.48,2c-4.58,3.05-6.79,7.34-6.31,12.84A13.11,13.11,0,0,0,28,42.14a2,2,0,0,1,1.07,2c0,1,0,2.06,0,3.12H40.9V45.56c0-.51,0-1,0-1.53a2.05,2.05,0,0,1,1-1.85,25.42,25.42,0,0,0,3-2.46,12.75,12.75,0,0,0,3.51-7,5.4,5.4,0,0,1,.11-.58.76.76,0,0,1,.84-.66.74.74,0,0,1,.61.91,19.2,19.2,0,0,1-.55,2.5,14.88,14.88,0,0,1-6.56,8.47.84.84,0,0,0-.48.86c0,1,0,1.91,0,2.86a.82.82,0,0,0,.28.55,2.16,2.16,0,0,1,1,1.87c0,.86.16,1.76-.53,2.51.75.89.57,1.94.5,2.94a2.06,2.06,0,0,1-1.94,1.8c-.72,0-1.44,0-2.17,0-.14,0-.37.11-.4.22a4.39,4.39,0,0,1-3.67,3.3ZM35,48.73H29.17c-1.36,0-1.43.07-1.42,1.4,0,1,.18,1.14,1.16,1.14H40.65c1.52,0,1.55,0,1.54-1.54,0-.8-.21-1-1-1Zm0,4H29.24c-1.5,0-1.5,0-1.49,1.52,0,.79.19,1,1,1h12c1.47,0,1.47,0,1.47-1.5,0-.82-.18-1-1-1Zm2.64,4H32.33a2.69,2.69,0,0,0,2.64,2A2.66,2.66,0,0,0,37.6,56.78Z"/><path class="cls-2" d="M43.49,36.3a6.39,6.39,0,0,1-.54.92,13.25,13.25,0,0,1-1.18,1.19,1.16,1.16,0,0,1-1.86,0A1.31,1.31,0,0,0,38.1,38a1.28,1.28,0,0,0-1,1.51,1.16,1.16,0,0,1-1.18,1.34,12.44,12.44,0,0,1-1.93,0,1.14,1.14,0,0,1-1.17-1.31A1.24,1.24,0,0,0,31.77,38c-1-.27-.94-.37-1.66.33a1.26,1.26,0,0,1-2,0L27,37.29a1.2,1.2,0,0,1,0-1.94,1.28,1.28,0,0,0,.35-1.76,1.29,1.29,0,0,0-1.51-1c-.86.06-1.33-.47-1.36-1.33,0-.54,0-1.09,0-1.63,0-.87.5-1.39,1.36-1.33s1.18-.2,1.51-1A1.28,1.28,0,0,0,27,25.54a1.18,1.18,0,0,1,0-1.93c.37-.39.75-.78,1.15-1.15a1.14,1.14,0,0,1,1.82,0,1.28,1.28,0,0,0,1.89.34c.84-.48.9-.39.91-1.33A1.3,1.3,0,0,1,34.29,20h1.43c.92,0,1.46.49,1.39,1.4s.21,1.14,1,1.46a1.28,1.28,0,0,0,1.8-.36,1.16,1.16,0,0,1,1.86,0c.41.38.81.78,1.19,1.19a1.16,1.16,0,0,1,0,1.85c-.67.56-.69,1-.36,1.81s.65,1.05,1.47,1,1.37.46,1.39,1.35c0,.53,0,1.05,0,1.58,0,.89-.5,1.43-1.38,1.36a1.19,1.19,0,0,0-1.47,1c-.3,1-.37,1,.32,1.71A6.07,6.07,0,0,1,43.49,36.3ZM40.78,23.59c-.33.36-.64.71-1,1.06a.87.87,0,0,1-1.12.14c-.77-.36-1.55-.68-2.35-1a.87.87,0,0,1-.69-.94c0-.45,0-.91,0-1.38H34.29c0,.49,0,.95,0,1.4a.86.86,0,0,1-.71.92c-.78.29-1.56.6-2.31,1a.9.9,0,0,1-1.19-.18l-.84-1c-.41.39-.72.67-1.08,1,.33.3.67.61,1,.93a.84.84,0,0,1,.16,1.11q-.54,1.18-1,2.4a.86.86,0,0,1-.86.66H26v1.37c.49,0,.94,0,1.4,0a.87.87,0,0,1,.93.7c.28.78.59,1.55.95,2.31a.89.89,0,0,1-.17,1.19c-.34.3-.7.59-1,.86l1,1.05,1-1a.89.89,0,0,1,1.16-.15c.75.35,1.53.67,2.31,1a.89.89,0,0,1,.71.92c0,.47,0,.94,0,1.4h1.36c0-.5,0-1,0-1.42a.86.86,0,0,1,.69-.89c.78-.28,1.56-.6,2.31-1,.52-.24.79-.25,1.19.16s.61.68.91,1l1.07-1.06-1-.92a.89.89,0,0,1-.16-1.16,24.44,24.44,0,0,0,1-2.31c.16-.46.4-.73.91-.71s.94,0,1.41,0V29.76c-.5,0-1,0-1.42,0a.88.88,0,0,1-.9-.69c-.29-.79-.61-1.58-1-2.35a.89.89,0,0,1,.17-1.16l1-.94Z"/><path class="cls-2" d="M40.66,16.47a14.89,14.89,0,0,1,9.09,10.79c.09.4.15.81.21,1.21a.78.78,0,0,1-.6,1c-.42.07-.78-.22-.86-.75a13.74,13.74,0,0,0-2.23-5.89,13.38,13.38,0,0,0-9-5.79c-.24-.05-.49-.07-.72-.14a.7.7,0,0,1-.59-.79.74.74,0,0,1,.8-.65A22.18,22.18,0,0,1,40.66,16.47Z"/><path class="cls-2" d="M34.24,11.66c0-.4,0-.79,0-1.19A.73.73,0,0,1,35,9.72a.71.71,0,0,1,.71.74c0,.82,0,1.64,0,2.46a.69.69,0,0,1-.74.7.68.68,0,0,1-.7-.69c0-.42,0-.85,0-1.27Z"/><path class="cls-2" d="M16.2,31.17c-.41,0-.82,0-1.23,0a.71.71,0,0,1-.72-.72.67.67,0,0,1,.67-.71c.85,0,1.71,0,2.56,0a.67.67,0,0,1,.67.71.7.7,0,0,1-.72.72C17,31.19,16.61,31.17,16.2,31.17Z"/><path class="cls-2" d="M21.17,17.7c-.29-.29-.61-.56-.89-.85a.72.72,0,0,1,0-1,.68.68,0,0,1,1-.06c.64.57,1.25,1.16,1.85,1.76a.69.69,0,0,1,0,1,.71.71,0,0,1-1,0C21.76,18.28,21.47,18,21.17,17.7Z"/><path class="cls-2" d="M22.17,44.21c-.29.29-.56.59-.87.87a.72.72,0,0,1-1,0,.7.7,0,0,1,0-1c.59-.62,1.19-1.22,1.81-1.8a.67.67,0,0,1,1,0,.71.71,0,0,1,0,1C22.77,43.64,22.46,43.92,22.17,44.21Z"/><path class="cls-2" d="M16.2,31.17c-.41,0-.82,0-1.23,0a.71.71,0,0,1-.72-.72.67.67,0,0,1,.67-.71c.85,0,1.71,0,2.56,0a.67.67,0,0,1,.67.71.7.7,0,0,1-.72.72C17,31.19,16.61,31.17,16.2,31.17Z"/><path class="cls-2" d="M21.17,17.7c-.29-.29-.61-.56-.89-.85a.72.72,0,0,1,0-1,.68.68,0,0,1,1-.06c.64.57,1.25,1.16,1.85,1.76a.69.69,0,0,1,0,1,.71.71,0,0,1-1,0C21.76,18.28,21.47,18,21.17,17.7Z"/><path class="cls-2" d="M22.17,44.21c-.29.29-.56.59-.87.87a.72.72,0,0,1-1,0,.7.7,0,0,1,0-1c.59-.62,1.19-1.22,1.81-1.8a.67.67,0,0,1,1,0,.71.71,0,0,1,0,1C22.77,43.64,22.46,43.92,22.17,44.21Z"/><path class="cls-2" d="M53.8,29.71c.41,0,.82,0,1.23,0a.71.71,0,0,1,.72.72.67.67,0,0,1-.67.71c-.85,0-1.71,0-2.56,0a.67.67,0,0,1-.67-.72.7.7,0,0,1,.72-.71C53,29.69,53.39,29.71,53.8,29.71Z"/><path class="cls-2" d="M48.83,43.18c.29.29.61.56.89.85a.72.72,0,0,1,0,1,.69.69,0,0,1-1,.06c-.64-.57-1.25-1.16-1.85-1.77a.68.68,0,0,1,0-1,.71.71,0,0,1,1,0C48.24,42.6,48.53,42.9,48.83,43.18Z"/><path class="cls-2" d="M47.83,16.67c.29-.29.56-.6.87-.87a.72.72,0,0,1,1,0,.69.69,0,0,1,0,1c-.59.63-1.19,1.23-1.81,1.81a.68.68,0,0,1-1,0,.71.71,0,0,1,0-1C47.23,17.24,47.54,17,47.83,16.67Z"/><path class="cls-2" d="M29.82,30.44a5.15,5.15,0,1,1,5.09,5.16A5.16,5.16,0,0,1,29.82,30.44ZM35,26.79a3.66,3.66,0,1,0,3.67,3.61A3.66,3.66,0,0,0,35,26.79Z"/><path class="cls-2" d="M32.3,30.41c-.27-1.16.35-1.74,1.28-2.3a2.11,2.11,0,0,1,2.74,0,3.21,3.21,0,0,0,.6.34,1.27,1.27,0,0,1,.73,1.29c0,.51,0,1,0,1.53a1.12,1.12,0,0,1-.57,1c-.5.31-1,.6-1.53.89a1.14,1.14,0,0,1-1.18,0c-.42-.24-.82-.5-1.24-.71A1.36,1.36,0,0,1,32.29,31C32.31,30.81,32.3,30.61,32.3,30.41Zm3.92.07c-.06-.28,0-.63-.2-.78A1.79,1.79,0,0,0,35,29.14a2,2,0,0,0-1.06.57c-.13.11-.12.42-.11.63s0,.67.12.83a1.71,1.71,0,0,0,1.05.58A1.9,1.9,0,0,0,36,31.19C36.17,31.06,36.16,30.73,36.22,30.48Z"/><path class="cls-2" d="M35.69,30.46a.72.72,0,1,1-.69-.73A.69.69,0,0,1,35.69,30.46Z"/></g></g></svg>