<svg xmlns="http://www.w3.org/2000/svg" viewBox="0 0 70 70"><defs><style>.cls-1{fill:#14be3c;}.cls-2{fill:#fff;}</style></defs><title>clock</title><g id="Layer_2" data-name="Layer 2"><g id="Layer_1-2" data-name="Layer 1"><circle class="cls-1" cx="35" cy="35" r="35"/><path class="cls-2" d="M52.32,17.68A24.49,24.49,0,1,0,17.68,52.32,24.49,24.49,0,1,0,52.32,17.68ZM35,57.55A22.55,22.55,0,1,1,57.55,35,22.58,22.58,0,0,1,35,57.55Z"/><path class="cls-2" d="M35,14.35A20.65,20.65,0,1,0,55.65,35,20.67,20.67,0,0,0,35,14.35ZM45.18,50.68l-1.62-2.81a1,1,0,1,0-1.69,1l1.62,2.82a18.67,18.67,0,0,1-7.51,2V50.42a1,1,0,0,0-2,0v3.26a18.67,18.67,0,0,1-7.51-2l1.62-2.82a1,1,0,1,0-1.69-1l-1.62,2.81a19,19,0,0,1-5.5-5.5l2.81-1.62a1,1,0,1,0-1-1.69l-2.82,1.62a18.67,18.67,0,0,1-2-7.51h3.26a1,1,0,0,0,0-2H16.32a18.67,18.67,0,0,1,2-7.51l2.82,1.62a1,1,0,0,0,.48.14,1,1,0,0,0,.49-1.83l-2.81-1.62a19,19,0,0,1,5.5-5.5l1.62,2.81a1,1,0,0,0,1.34.36,1,1,0,0,0,.35-1.33l-1.62-2.82a18.5,18.5,0,0,1,7.51-2v3.25a1,1,0,0,0,2,0V16.33a18.5,18.5,0,0,1,7.51,2l-1.62,2.82a1,1,0,0,0,.84,1.46,1,1,0,0,0,.85-.49l1.62-2.81a19,19,0,0,1,5.5,5.5l-2.81,1.62a1,1,0,0,0,.49,1.83,1,1,0,0,0,.48-.14l2.82-1.62a18.5,18.5,0,0,1,2,7.51H50.42a1,1,0,0,0,0,2h3.25a18.5,18.5,0,0,1-2,7.51l-2.82-1.62a1,1,0,1,0-1,1.69l2.81,1.62A19,19,0,0,1,45.18,50.68Z"/><path class="cls-2" d="M36,32.28V26a1,1,0,0,0-2,0v6.26A2.9,2.9,0,0,0,32.11,35a2.84,2.84,0,0,0,.69,1.86l-1.55,2.69a1,1,0,0,0,.35,1.33,1,1,0,0,0,.49.13,1,1,0,0,0,.85-.49l1.55-2.68a2.76,2.76,0,0,0,.51,0,2.89,2.89,0,0,0,1-5.61Zm-1,3.66a.94.94,0,1,1,.94-.94A.94.94,0,0,1,35,35.94Z"/><path class="cls-2" d="M35,24.17a1,1,0,0,0,1-1V22.8a1,1,0,0,0-2,0v.39A1,1,0,0,0,35,24.17Z"/></g></g></svg>