<svg xmlns="http://www.w3.org/2000/svg" viewBox="0 0 50 10.12"><defs><style>.cls-1{fill:#fd643c;}</style></defs><title>curve-center</title><g id="Layer_2" data-name="Layer 2"><g id="Layer_1-2" data-name="Layer 1"><path class="cls-1" d="M0,10A32.56,32.56,0,0,1,11.42,2.57,37.9,37.9,0,0,1,18.07.62,40.22,40.22,0,0,1,25,0c1.16,0,2.32.1,3.48.18s2.31.29,3.44.56a35.23,35.23,0,0,1,6.62,2A38.45,38.45,0,0,1,50,10.12,75.45,75.45,0,0,0,37.75,5c-.51-.18-1-.3-1.57-.43s-1-.3-1.58-.42c-1.06-.22-2.11-.47-3.19-.6A40.81,40.81,0,0,0,25,3,44,44,0,0,0,12.17,4.78,54.48,54.48,0,0,0,0,10Z"/></g></g></svg>