<svg xmlns="http://www.w3.org/2000/svg" viewBox="0 0 70 70"><defs><style>.cls-1{fill:#14be3c;}.cls-2{fill:#fff;}</style></defs><title>list</title><g id="Layer_2" data-name="Layer 2"><g id="Layer_1-2" data-name="Layer 1"><circle class="cls-1" cx="35" cy="35" r="35"/><path class="cls-2" d="M42,11.67a3,3,0,0,1,2.22,1.71,9.12,9.12,0,0,1,.4,1.43h.46c1.63,0,3.26,0,4.88.06a3.51,3.51,0,0,1,3.24,3.26c.07,2.64,0,5.28,0,7.93a.71.71,0,0,1-.68.81c-.43,0-.71-.33-.71-.89,0-2.44,0-4.89,0-7.33a2.29,2.29,0,0,0-1.74-2.37,1.51,1.51,0,0,0-.36-.06H44.61v2.29h.46c1.18,0,2.37,0,3.55,0,.75,0,1,.22,1,1q0,14.28,0,28.57a1.37,1.37,0,0,1-.37.88c-1.75,1.79-3.53,3.55-5.3,5.33a1.15,1.15,0,0,1-.89.37H21.34c-.71,0-.93-.22-.93-.92,0-3.05,0-6.11,0-9.16,0-.18,0-.43.1-.52a1.16,1.16,0,0,1,.71-.34c.41,0,.56.37.57.75,0,1.11,0,2.22,0,3.33v5.44H42.57V48.55c0-.72.23-.95,1-.95h4.66V19.89H45.64c-.32,0-.71-.11-.93,0s-.21.55-.3.84a2.91,2.91,0,0,1-2.89,2.08c-4.35,0-8.69,0-13,0-1.73,0-2.69-1-3.09-2.93H21.79V41.59a2.64,2.64,0,0,1-.06.63.6.6,0,0,1-.68.48.62.62,0,0,1-.62-.56,2.74,2.74,0,0,1,0-.5v-22c0-.91.18-1.08,1.11-1.08h3.9V16.28s-.05-.05-.08-.05c-1.73,0-3.46,0-5.19,0a2.19,2.19,0,0,0-2,1.83,3.94,3.94,0,0,0-.06.77q0,17.73,0,35.45A2.38,2.38,0,0,0,20.72,57H49.29a2.35,2.35,0,0,0,2.54-1.77,4.26,4.26,0,0,0,.07-1V28.94a1.28,1.28,0,0,1,.08-.66,1.08,1.08,0,0,1,.65-.45.57.57,0,0,1,.63.53,2.74,2.74,0,0,1,0,.5q0,12.74,0,25.47a3.79,3.79,0,0,1-3.16,4s0,0-.08,0H19.89a4.26,4.26,0,0,1-2.19-1.19,4,4,0,0,1-1-2.89V29.36c0-3.55,0-7.1,0-10.66a3.7,3.7,0,0,1,3.55-3.86c1.54,0,3.09,0,4.64,0a4.36,4.36,0,0,0,.45,0,11.46,11.46,0,0,1,.42-1.45,3.08,3.08,0,0,1,2.15-1.66Zm1.1,6.81V16.24H26.86v2.24ZM26.85,14.77H43.14a1.55,1.55,0,0,0-1.71-1.72h-8c-1.63,0-3.25,0-4.88,0A1.56,1.56,0,0,0,26.85,14.77Zm16.26,5.15H26.84a1.44,1.44,0,0,0,0,.21,1.62,1.62,0,0,0,1.84,1.33h12.7a3.19,3.19,0,0,0,.54,0A1.43,1.43,0,0,0,43.11,19.92Zm4,29.11H44v3.12Z"/><path class="cls-2" d="M39.25,34.49h5.87a3.19,3.19,0,0,1,.54,0,.62.62,0,0,1,.49.64.6.6,0,0,1-.46.64,2,2,0,0,1-.54.07H33.45a2.88,2.88,0,0,1-.59,0,.67.67,0,0,1,0-1.31,3.27,3.27,0,0,1,.54,0Z"/><path class="cls-2" d="M39.22,43.89H33.07c-.46,0-.75-.3-.75-.69a.7.7,0,0,1,.75-.69c.69,0,1.37,0,2,0h10c.19,0,.45,0,.57.09a1.05,1.05,0,0,1,.41.66c0,.2-.25.45-.45.59a1.33,1.33,0,0,1-.58.06Z"/><path class="cls-2" d="M39.26,26.5h5.83c.18,0,.41-.05.54,0s.47.35.48.55a1,1,0,0,1-.36.69c-.11.11-.37.1-.57.1H33.35a2.26,2.26,0,0,1-.37,0,.68.68,0,0,1-.66-.69.66.66,0,0,1,.71-.67c1.15,0,2.3,0,3.46,0C37.41,26.49,38.34,26.5,39.26,26.5Z"/><path class="cls-2" d="M27,29.78l.22-.46c.54-1.22,1.06-2.45,1.63-3.66a1.17,1.17,0,0,1,.57-.57.66.66,0,0,1,.62.2,1.12,1.12,0,0,1,.08.84c-.53,1.3-1.12,2.59-1.68,3.88a15.2,15.2,0,0,1-.7,1.53,1.26,1.26,0,0,1-.65.53c-.33.1-.55-.17-.7-.46-.56-1.06-1.11-2.12-1.66-3.19-.26-.49-.16-.89.24-1.09s.73,0,1,.46C26.28,28.43,26.61,29.07,27,29.78Z"/><path class="cls-2" d="M27,37.77c.08-.18.15-.31.21-.45.54-1.21,1.07-2.44,1.61-3.65.08-.18.19-.42.33-.47a1.19,1.19,0,0,1,.79,0c.33.15.35.51.22.83-.23.58-.49,1.14-.74,1.71l-1.62,3.7c-.15.34-.32.64-.73.65s-.58-.27-.74-.58l-1.56-3c0-.09-.09-.19-.13-.29a.68.68,0,0,1,1.22-.61c.31.54.58,1.1.87,1.65Z"/><path class="cls-2" d="M36.85,37.27H40.4c.12,0,.24,0,.36,0a.69.69,0,0,1,.69.71.68.68,0,0,1-.68.66c-.56,0-1.12,0-1.68,0h-6a.72.72,0,0,1-.76-.69.7.7,0,0,1,.75-.69c.64,0,1.28,0,1.92,0Z"/><path class="cls-2" d="M36.89,30.64H33.2c-.57,0-.89-.26-.89-.69s.33-.69.9-.69h7.38c.52,0,.81.23.85.63s-.26.74-.77.75Z"/><path class="cls-2" d="M36.89,45.28h3.6c.14,0,.32,0,.4,0s.49.37.52.59-.2.49-.39.67-.34.09-.52.09c-2.42,0-4.83,0-7.25,0a1.22,1.22,0,0,1-.27,0,.71.71,0,0,1-.67-.68.7.7,0,0,1,.71-.69h3.87Z"/></g></g></svg>