<svg xmlns="http://www.w3.org/2000/svg" viewBox="0 0 227.13 105.28"><defs><style>.cls-1{font-size:9.41px;fill:#231f20;font-family:Roboto-Regular, Roboto;}.cls-2{letter-spacing:-0.01em;}.cls-3{letter-spacing:0.01em;}.cls-4{letter-spacing:-0.06em;}.cls-5{letter-spacing:0em;}.cls-6{fill:#16be3c;}.cls-7{fill:#0a3c82;}.cls-8{fill:#fa5f00;}.cls-9{fill:#14be3c;}</style></defs><title>logo</title><g id="Layer_2" data-name="Layer 2"><g id="Layer_1-2" data-name="Layer 1"><text class="cls-1" transform="translate(62.96 102.72)"><tspan xml:space="preserve">A                      IN</tspan><tspan class="cls-2" x="66.69" y="0">I</tspan><tspan x="69.12" y="0">T</tspan><tspan class="cls-3" x="74.73" y="0">I</tspan><tspan class="cls-4" x="77.38" y="0">A</tspan><tspan class="cls-5" x="82.93" y="0">TIVE</tspan></text><path class="cls-6" d="M83.71,101.18h-3.1l-.48,1.5H78.48L81.26,95H83l2.82,7.69H84.19Zm-.41-1.26-1.14-3.53L81,99.92Z"/><path class="cls-6" d="M92.5,96.3H90.22v6.38H88.68V96.3H86.44V95H92.5Z"/><path class="cls-6" d="M100.5,96.3H98.21v6.38H96.67V96.3H94.43V95h6.07Z"/><path class="cls-6" d="M109.12,95l-2.35,7.69h-2.08L102.25,95h1.63l1.85,6.07L107.52,95Z"/><path class="cls-6" d="M115.24,101.18h-3.11l-.48,1.5H110L112.79,95h1.76l2.81,7.69h-1.64Zm-.41-1.26-1.14-3.53-1.15,3.53Z"/><path class="cls-6" d="M74.06,102.87a5.37,5.37,0,0,1-1.48-.17,6.38,6.38,0,0,1-1-.37l.26-1.07c.35.14.69.25,1,.34a3.72,3.72,0,0,0,1,.14,2.2,2.2,0,0,0,1.11-.22.93.93,0,0,0,.34-.85,1.37,1.37,0,0,0-.06-.44.66.66,0,0,0-.23-.3,1.31,1.31,0,0,0-.46-.23,7,7,0,0,0-.74-.19,6.06,6.06,0,0,1-.93-.28,2.12,2.12,0,0,1-.7-.43,1.6,1.6,0,0,1-.42-.67,3,3,0,0,1-.15-1,2.2,2.2,0,0,1,.68-1.73,2.9,2.9,0,0,1,2-.6,6.37,6.37,0,0,1,1.27.11,5.3,5.3,0,0,1,.9.27l-.19,1.13-.45-.12-.42-.09L75,96h-.53a1.88,1.88,0,0,0-1,.2.83.83,0,0,0-.31.74,1.69,1.69,0,0,0,0,.43.57.57,0,0,0,.21.3,1.43,1.43,0,0,0,.43.22c.19.06.43.12.73.19a9,9,0,0,1,1,.28,2.27,2.27,0,0,1,.73.43,1.83,1.83,0,0,1,.46.66,2.81,2.81,0,0,1,.15,1,2.33,2.33,0,0,1-.67,1.81A3,3,0,0,1,74.06,102.87Z"/><path class="cls-7" d="M30,48.59c-1.12-.41-2.28-.83-3.47-1.28h0c-6.5-2.39-10.26-4.49-10.26-8.2,0-2.13,2.5-4.61,6.08-6l-.35-1c-2.4.8-4.81,1.78-7.37,2.72l-.47.24a17.53,17.53,0,0,0-3.77,11.19c0,8.54,10.09,12.05,16.77,14.38l1.19.41c7.84,2.74,15.11,5.85,15.23,10,0,2.85-7,7.4-15.31,7.4-7.7,0-13.38-2.12-17.37-6.48l-.35-.38-2.16,2,.34.39c4.51,5,10.76,7.32,19.66,7.32,10.54,0,21.2-5.66,21.2-16.48C49.57,55.79,41.78,52.93,30,48.59Z"/><rect class="cls-7" x="122.52" y="30.76" width="10.18" height="50.1"/><path class="cls-7" d="M188.58,9.54C186.85,3.12,182.29,0,174.67,0c-13.32,0-19.32,7.86-19.46,25.49V80.86h10.18V30.76h0v-6c0-6,0-11.68,1.39-15.67,1.5-4.28,4.53-6.28,9.53-6.28,5.33,0,8.81,2.56,10,7.4l.13.52,2.23-.67Z"/><path class="cls-7" d="M222.27,74l-.27.41c-1.56,2.34-5.66,4-9.75,4-9.72,0-9.74-9.51-9.76-22.67,0-1.21,0-2.44,0-3.69l-.12-19.2V13.2H192.17V32.92c0,6.71,0,15.07.12,22.85,0,16.67,6.6,25.49,19.09,25.49,5.78,0,10.33-2.06,12.48-5.65l.26-.43Z"/><path class="cls-7" d="M84.74,30.07c-5.37,0-9.18,1.54-11.6,4.69V.12H63V80.86H73.14V40c1.3-4.66,4.74-7.13,10-7.13,5,0,8,2,9.52,6.28,1.4,4,1.4,9.66,1.39,15.67V80.86H104.2V55.56C104.06,37.93,98.05,30.07,84.74,30.07Z"/><path class="cls-8" d="M0,41.66S111.5-21.76,227.13,53.44C227.13,53.44,125.73-12.75,0,41.66Z"/><circle class="cls-9" cx="127.39" cy="18.99" r="7.43" transform="translate(25.69 98.02) rotate(-46.33)"/></g></g></svg>